<?xml version="1.0" encoding="UTF-8"?>
<!DOCTYPE svg PUBLIC "-//W3C//DTD SVG 1.1//EN" "http://www.w3.org/Graphics/SVG/1.1/DTD/svg11.dtd">
<svg xmlns="http://www.w3.org/2000/svg" version="1.1" width="667px" height="667px" style="shape-rendering:geometricPrecision; text-rendering:geometricPrecision; image-rendering:optimizeQuality; fill-rule:evenodd; clip-rule:evenodd" xmlns:xlink="http://www.w3.org/1999/xlink">
<g><path style="opacity:0.981" fill="#1d1d1b" d="M 387.5,299.5 C 388.417,292.914 390.25,286.581 393,280.5C 398.441,270.053 403.441,259.386 408,248.5C 414.166,214.963 402.333,190.13 372.5,174C 343.86,162.496 317.86,166.663 294.5,186.5C 291.189,176.405 287.189,166.571 282.5,157C 285.617,155.555 287.617,153.222 288.5,150C 286.213,140.573 284.713,131.073 284,121.5C 285.171,120.107 286.671,119.273 288.5,119C 298.365,116.575 308.199,114.075 318,111.5C 320.145,111.396 321.979,112.063 323.5,113.5C 327.967,121.795 332.633,129.962 337.5,138C 346.567,138.17 355.567,139.004 364.5,140.5C 366.374,140.61 367.874,139.944 369,138.5C 374.137,131.063 379.637,123.896 385.5,117C 387.167,116.333 388.833,116.333 390.5,117C 400.657,121.911 410.657,127.078 420.5,132.5C 420.833,133.167 421.167,133.833 421.5,134.5C 418.765,142.538 415.932,150.538 413,158.5C 412.333,160.5 412.333,162.5 413,164.5C 419.185,170.02 424.685,176.187 429.5,183C 439.712,182.55 449.879,181.383 460,179.5C 461.5,179.833 463,180.167 464.5,180.5C 467.177,189.541 470.011,198.541 473,207.5C 473.667,209.833 473.667,212.167 473,214.5C 463.333,219.5 453.667,224.5 444,229.5C 443.047,237.576 441.547,245.576 439.5,253.5C 448.231,260.386 457.397,266.719 467,272.5C 467.667,274.167 467.667,275.833 467,277.5C 461.748,285.668 456.748,294.001 452,302.5C 450.818,304.357 449.151,305.357 447,305.5C 436.289,302.656 425.622,299.656 415,296.5C 408.811,300.352 402.645,304.352 396.5,308.5C 393.839,305.173 390.839,302.173 387.5,299.5 Z"/></g>
<g><path style="opacity:0.944" fill="#fafafa" d="M 387.5,299.5 C 384.091,314.294 382.758,329.294 383.5,344.5C 390.848,343.546 398.181,343.546 405.5,344.5C 407.192,346.359 408.692,348.359 410,350.5C 410.497,347.854 410.664,345.187 410.5,342.5C 423.561,341.761 436.561,340.427 449.5,338.5C 452.382,341.23 455.049,344.23 457.5,347.5C 459.957,344.086 462.291,340.586 464.5,337C 473.7,335.661 482.866,334.161 492,332.5C 494.685,334.175 496.685,336.508 498,339.5C 498.497,336.854 498.664,334.187 498.5,331.5C 516.299,328.474 533.965,324.807 551.5,320.5C 552.499,334.818 552.833,349.151 552.5,363.5C 547.516,364.275 542.516,364.942 537.5,365.5C 537.5,377.833 537.5,390.167 537.5,402.5C 538.5,402.5 539.5,402.5 540.5,402.5C 540.5,412.833 540.5,423.167 540.5,433.5C 530.5,433.5 520.5,433.5 510.5,433.5C 510.5,423.5 510.5,413.5 510.5,403.5C 511.5,403.5 512.5,403.5 513.5,403.5C 513.5,392.167 513.5,380.833 513.5,369.5C 509.466,369.505 505.466,369.838 501.5,370.5C 501.667,387.503 501.5,404.503 501,421.5C 498.5,425.333 496,429.167 493.5,433C 483.5,433.667 473.5,433.667 463.5,433C 461.623,430.079 459.623,427.246 457.5,424.5C 455.147,426.86 453.147,429.527 451.5,432.5C 439.518,433.499 427.518,433.832 415.5,433.5C 421.787,481.431 403.453,516.264 360.5,538C 317.523,553.214 280.69,544.047 250,510.5C 233.832,489.495 227.498,465.828 231,439.5C 231.792,437.413 232.959,435.579 234.5,434C 203.502,433.5 172.502,433.333 141.5,433.5C 141.167,428.167 140.833,428.167 140.5,433.5C 131.5,433.5 122.5,433.5 113.5,433.5C 113.5,422.833 113.5,412.167 113.5,401.5C 114.833,401.5 116.167,401.5 117.5,401.5C 117.667,385.497 117.5,369.497 117,353.5C 115.989,352.663 114.822,352.33 113.5,352.5C 113.168,341.813 113.501,331.146 114.5,320.5C 122.531,322.373 130.531,324.373 138.5,326.5C 139.79,333.043 140.457,333.043 140.5,326.5C 149.48,328.274 158.48,329.941 167.5,331.5C 167.5,341.167 167.5,350.833 167.5,360.5C 166.167,360.5 164.833,360.5 163.5,360.5C 163.216,375.202 163.55,389.869 164.5,404.5C 165.833,404.5 167.167,404.5 168.5,404.5C 169.921,390.136 171.587,375.803 173.5,361.5C 172.5,361.5 171.5,361.5 170.5,361.5C 170.5,351.833 170.5,342.167 170.5,332.5C 176.794,332.91 182.961,333.91 189,335.5C 190.449,320.928 191.616,320.928 192.5,335.5C 198.403,336.271 204.237,337.271 210,338.5C 210.352,346.177 210.852,353.844 211.5,361.5C 211.167,363.167 210.833,364.833 210.5,366.5C 209.096,365.001 208.43,365.334 208.5,367.5C 210.659,380.107 212.326,392.774 213.5,405.5C 215.144,405.286 216.644,405.62 218,406.5C 218.547,393.158 218.381,379.824 217.5,366.5C 216.5,366.5 215.5,366.5 214.5,366.5C 214.5,357.167 214.5,347.833 214.5,338.5C 221.819,339.369 229.152,340.202 236.5,341C 239.288,341.726 240.788,343.56 241,346.5C 241.494,344.866 241.66,343.199 241.5,341.5C 243.792,341.244 245.959,341.577 248,342.5C 253.308,317.219 265.975,296.553 286,280.5C 286.402,279.128 286.902,277.795 287.5,276.5C 273.426,281.04 259.426,286.54 245.5,293C 238.335,297.114 231.002,297.781 223.5,295C 222,293.5 220.5,292 219,290.5C 215.138,281.915 211.472,273.248 208,264.5C 207.221,254.109 212.054,248.442 222.5,247.5C 226.563,248.353 230.563,249.52 234.5,251C 238.167,251.667 241.833,251.667 245.5,251C 264.418,242.758 275.918,228.591 280,208.5C 283.601,200.281 288.435,192.948 294.5,186.5C 317.86,166.663 343.86,162.496 372.5,174C 402.333,190.13 414.166,214.963 408,248.5C 403.441,259.386 398.441,270.053 393,280.5C 390.25,286.581 388.417,292.914 387.5,299.5 Z M 268.5,423.5 C 280.434,436.604 292.6,449.604 305,462.5C 311.552,478.944 306.385,483.777 289.5,477C 279.855,473.025 272.355,466.525 267,457.5C 262.935,450.041 259.435,442.374 256.5,434.5C 260.445,433.509 264.445,433.176 268.5,433.5C 268.5,430.167 268.5,426.833 268.5,423.5 Z"/></g>
<g><path style="opacity:1" fill="#1d1d1b" d="M 367.5,407.5 C 366.833,402.5 366.167,397.5 365.5,392.5C 364.045,390.69 364.212,389.023 366,387.5C 366.667,377.5 366.667,367.5 366,357.5C 363.623,353.912 361.123,350.412 358.5,347C 325.786,346.956 293.119,345.789 260.5,343.5C 262.449,329.27 267.949,316.604 277,305.5C 284.405,298.765 291.072,291.432 297,283.5C 299.735,275.659 298.568,268.493 293.5,262C 292.167,261.333 290.833,261.333 289.5,262C 270.4,270.032 251.233,277.866 232,285.5C 230.289,285.561 228.956,284.894 228,283.5C 225.333,276.833 222.667,270.167 220,263.5C 219.225,261.051 220.058,259.384 222.5,258.5C 234.292,265.269 245.959,265.102 257.5,258C 267.305,251.526 275.805,243.693 283,234.5C 286.123,227.015 288.79,219.349 291,211.5C 303.109,188.358 322.276,177.525 348.5,179C 372.519,181.353 388.686,193.853 397,216.5C 400.225,226.484 400.225,236.484 397,246.5C 391.409,258.017 386.076,269.683 381,281.5C 373.293,303.859 370.293,326.859 372,350.5C 370.667,352.5 369.333,354.5 368,356.5C 367.5,373.497 367.333,390.497 367.5,407.5 Z"/></g>
<g><path style="opacity:1" fill="#1d1d1b" d="M 161.5,335.5 C 161.5,341.833 161.5,348.167 161.5,354.5C 160.5,354.5 159.5,354.5 158.5,354.5C 158.17,372.674 158.503,390.674 159.5,408.5C 160.5,408.5 161.5,408.5 162.5,408.5C 162.5,415.167 162.5,421.833 162.5,428.5C 156.833,428.5 151.167,428.5 145.5,428.5C 142.431,414.797 139.264,401.13 136,387.5C 135.5,400.829 135.333,414.163 135.5,427.5C 130.167,427.5 124.833,427.5 119.5,427.5C 119.5,420.833 119.5,414.167 119.5,407.5C 120.5,407.5 121.5,407.5 122.5,407.5C 122.83,387.66 122.497,367.993 121.5,348.5C 120.5,348.5 119.5,348.5 118.5,348.5C 118.5,341.5 118.5,334.5 118.5,327.5C 123.801,328.377 129.135,329.044 134.5,329.5C 137.682,344.23 141.182,358.897 145,373.5C 145.333,359.833 145.667,346.167 146,332.5C 151.077,333.815 156.244,334.815 161.5,335.5 Z"/></g>
<g><path style="opacity:1" fill="#20201e" d="M 505.5,364.5 C 504.506,355.014 504.173,345.348 504.5,335.5C 518.638,333.272 532.638,330.272 546.5,326.5C 547.499,337.48 547.832,348.48 547.5,359.5C 543.481,359.646 539.481,359.979 535.5,360.5C 535.5,357.167 535.5,353.833 535.5,350.5C 534.5,350.5 533.5,350.5 532.5,350.5C 532.5,369.5 532.5,388.5 532.5,407.5C 533.5,407.5 534.5,407.5 535.5,407.5C 535.5,414.5 535.5,421.5 535.5,428.5C 528.833,428.5 522.167,428.5 515.5,428.5C 515.5,421.833 515.5,415.167 515.5,408.5C 516.5,408.5 517.5,408.5 518.5,408.5C 518.5,390.167 518.5,371.833 518.5,353.5C 517.5,353.5 516.5,353.5 515.5,353.5C 515.5,357.167 515.5,360.833 515.5,364.5C 512.167,364.5 508.833,364.5 505.5,364.5 Z"/></g>
<g><path style="opacity:1" fill="#1e1e1d" d="M 212.5,410.5 C 212.5,416.5 212.5,422.5 212.5,428.5C 206.167,428.5 199.833,428.5 193.5,428.5C 193.5,422.5 193.5,416.5 193.5,410.5C 194.5,410.5 195.5,410.5 196.5,410.5C 196.768,408.901 196.434,407.568 195.5,406.5C 195.5,405.167 195.5,403.833 195.5,402.5C 194.207,401.842 192.707,401.508 191,401.5C 189.014,401.569 187.514,402.235 186.5,403.5C 186.5,405.5 186.5,407.5 186.5,409.5C 187.5,409.5 188.5,409.5 189.5,409.5C 189.5,415.833 189.5,422.167 189.5,428.5C 182.833,428.5 176.167,428.5 169.5,428.5C 169.5,422.167 169.5,415.833 169.5,409.5C 170.5,409.5 171.5,409.5 172.5,409.5C 174.992,392.229 176.992,374.896 178.5,357.5C 177.5,357.5 176.5,357.5 175.5,357.5C 175.5,351.167 175.5,344.833 175.5,338.5C 185.808,340.02 196.141,341.354 206.5,342.5C 206.5,348.5 206.5,354.5 206.5,360.5C 205.5,360.5 204.5,360.5 203.5,360.5C 205.499,377.161 207.499,393.828 209.5,410.5C 210.5,410.5 211.5,410.5 212.5,410.5 Z"/></g>
<g><path style="opacity:1" fill="#222220" d="M 483.5,338.5 C 486.187,338.336 488.854,338.503 491.5,339C 493.333,341.5 495.167,344 497,346.5C 497.667,370.5 497.667,394.5 497,418.5C 495.204,421.927 493.037,425.094 490.5,428C 482.5,428.667 474.5,428.667 466.5,428C 464.789,425.411 462.955,422.911 461,420.5C 460.333,397.5 460.333,374.5 461,351.5C 462.97,347.871 465.304,344.538 468,341.5C 473.325,340.627 478.491,339.627 483.5,338.5 Z"/></g>
<g><path style="opacity:1" fill="#1e1e1c" d="M 260.5,411.5 C 261.209,412.404 262.209,412.737 263.5,412.5C 263.5,417.833 263.5,423.167 263.5,428.5C 257.833,428.5 252.167,428.5 246.5,428.5C 243.645,417.098 240.478,405.765 237,394.5C 236.5,405.828 236.333,417.162 236.5,428.5C 231.167,428.5 225.833,428.5 220.5,428.5C 220.5,422.833 220.5,417.167 220.5,411.5C 221.5,411.5 222.5,411.5 223.5,411.5C 223.83,394.991 223.496,378.658 222.5,362.5C 221.5,362.5 220.5,362.5 219.5,362.5C 219.5,356.5 219.5,350.5 219.5,344.5C 225.099,344.696 230.599,345.362 236,346.5C 239.178,358.212 242.511,369.878 246,381.5C 246.5,370.172 246.667,358.838 246.5,347.5C 252.203,347.375 257.87,347.708 263.5,348.5C 263.5,354.167 263.5,359.833 263.5,365.5C 262.5,365.5 261.5,365.5 260.5,365.5C 260.5,380.833 260.5,396.167 260.5,411.5 Z"/></g>
<g><path style="opacity:1" fill="#1f1f1d" d="M 438.5,344.5 C 445.582,343.026 450.749,345.359 454,351.5C 454.667,361.5 454.667,371.5 454,381.5C 453.15,383.01 452.317,384.51 451.5,386C 452.317,387.49 453.15,388.99 454,390.5C 454.667,400.5 454.667,410.5 454,420.5C 452.045,422.911 450.211,425.411 448.5,428C 437.172,428.5 425.838,428.667 414.5,428.5C 414.5,422.833 414.5,417.167 414.5,411.5C 415.833,411.5 417.167,411.5 418.5,411.5C 418.5,395.833 418.5,380.167 418.5,364.5C 417.167,364.5 415.833,364.5 414.5,364.5C 414.5,358.833 414.5,353.167 414.5,347.5C 422.627,346.394 430.627,345.394 438.5,344.5 Z"/></g>
<g><path style="opacity:1" fill="#222220" d="M 388.5,348.5 C 393.179,348.334 397.845,348.501 402.5,349C 404.333,351.5 406.167,354 408,356.5C 408.667,377.833 408.667,399.167 408,420.5C 405.833,423.333 403.667,426.167 401.5,429C 393.479,429.832 385.479,429.665 377.5,428.5C 375.667,426.167 373.833,423.833 372,421.5C 371.333,400.5 371.333,379.5 372,358.5C 374.029,355.971 375.862,353.304 377.5,350.5C 381.313,349.833 384.979,349.166 388.5,348.5 Z"/></g>
<g><path style="opacity:1" fill="#1e1e1c" d="M 278.5,349.5 C 290.488,350.166 302.488,350.499 314.5,350.5C 314.5,358.833 314.5,367.167 314.5,375.5C 310.5,375.5 306.5,375.5 302.5,375.5C 302.5,372.833 302.5,370.167 302.5,367.5C 301.432,366.566 300.099,366.232 298.5,366.5C 298.17,382.009 298.504,397.342 299.5,412.5C 300.5,412.5 301.5,412.5 302.5,412.5C 302.5,418.167 302.5,423.833 302.5,429.5C 295.833,429.5 289.167,429.5 282.5,429.5C 282.5,423.833 282.5,418.167 282.5,412.5C 283.5,412.5 284.5,412.5 285.5,412.5C 285.5,397.167 285.5,381.833 285.5,366.5C 284.5,366.5 283.5,366.5 282.5,366.5C 282.5,369.167 282.5,371.833 282.5,374.5C 278.5,374.5 274.5,374.5 270.5,374.5C 270.5,366.167 270.5,357.833 270.5,349.5C 273.167,349.5 275.833,349.5 278.5,349.5 Z"/></g>
<g><path style="opacity:1" fill="#1e1e1c" d="M 364.5,412.5 C 364.5,417.833 364.5,423.167 364.5,428.5C 359.167,428.5 353.833,428.5 348.5,428.5C 348.666,419.161 348.5,409.827 348,400.5C 345.174,398.66 342.007,397.994 338.5,398.5C 337.506,408.319 337.173,418.319 337.5,428.5C 332.167,428.5 326.833,428.5 321.5,428.5C 321.5,423.167 321.5,417.833 321.5,412.5C 322.5,412.5 323.5,412.5 324.5,412.5C 324.5,397.5 324.5,382.5 324.5,367.5C 323.167,367.5 321.833,367.5 320.5,367.5C 320.5,361.833 320.5,356.167 320.5,350.5C 332.171,350.333 343.838,350.5 355.5,351C 357.452,353.074 359.285,355.241 361,357.5C 361.667,367.167 361.667,376.833 361,386.5C 360.044,387.579 359.211,388.745 358.5,390C 359.701,390.903 360.535,392.069 361,393.5C 361.5,399.825 361.666,406.158 361.5,412.5C 362.5,412.5 363.5,412.5 364.5,412.5 Z"/></g>
<g><path style="opacity:1" fill="#626261" d="M 161.5,335.5 C 162.491,341.979 162.824,348.646 162.5,355.5C 161.5,355.5 160.5,355.5 159.5,355.5C 159.5,373.167 159.5,390.833 159.5,408.5C 158.503,390.674 158.17,372.674 158.5,354.5C 159.5,354.5 160.5,354.5 161.5,354.5C 161.5,348.167 161.5,341.833 161.5,335.5 Z"/></g>
<g><path style="opacity:1" fill="#9f9f9e" d="M 278.5,349.5 C 275.833,349.5 273.167,349.5 270.5,349.5C 270.5,357.833 270.5,366.167 270.5,374.5C 269.507,366.016 269.174,357.349 269.5,348.5C 272.713,348.19 275.713,348.523 278.5,349.5 Z"/></g>
<g><path style="opacity:1" fill="#494948" d="M 504.5,335.5 C 504.173,345.348 504.506,355.014 505.5,364.5C 505.44,365.043 505.107,365.376 504.5,365.5C 503.177,355.341 503.177,345.341 504.5,335.5 Z"/></g>
<g><path style="opacity:0.954" fill="#fdfdfd" d="M 476.5,358.5 C 478.792,358.244 480.959,358.577 483,359.5C 483.667,375.5 483.667,391.5 483,407.5C 480.582,409.68 477.916,410.013 475,408.5C 474.333,392.833 474.333,377.167 475,361.5C 475.513,360.473 476.013,359.473 476.5,358.5 Z"/></g>
<g><path style="opacity:0.973" fill="#f6f6f6" d="M 431.5,363.5 C 434.187,363.336 436.854,363.503 439.5,364C 440.629,368.079 440.796,372.245 440,376.5C 437.519,378.314 434.685,378.98 431.5,378.5C 431.5,373.5 431.5,368.5 431.5,363.5 Z"/></g>
<g><path style="opacity:0.992" fill="#fbfbfb" d="M 386.5,366.5 C 389.119,366.232 391.619,366.565 394,367.5C 394.667,381.833 394.667,396.167 394,410.5C 391.333,413.167 388.667,413.167 386,410.5C 385.185,395.759 385.351,381.092 386.5,366.5 Z"/></g>
<g><path style="opacity:1" fill="#e2e2e2" d="M 337.5,367.5 C 340.518,367.335 343.518,367.502 346.5,368C 348.045,369.822 348.712,371.989 348.5,374.5C 348.712,377.011 348.045,379.178 346.5,381C 343.518,381.498 340.518,381.665 337.5,381.5C 337.5,376.833 337.5,372.167 337.5,367.5 Z"/></g>
<g><path style="opacity:1" fill="#e4e4e3" d="M 190.5,365.5 C 191.998,373.634 192.998,381.968 193.5,390.5C 191.833,390.5 190.167,390.5 188.5,390.5C 188.59,382.116 189.257,373.783 190.5,365.5 Z"/></g>
<g><path style="opacity:1" fill="#868685" d="M 316.5,408.5 C 317.209,407.596 318.209,407.263 319.5,407.5C 319.5,398.5 319.5,389.5 319.5,380.5C 314.167,380.5 308.833,380.5 303.5,380.5C 308.305,379.513 313.305,379.179 318.5,379.5C 318.187,376.753 318.52,374.086 319.5,371.5C 320.499,383.815 320.832,396.149 320.5,408.5C 319.167,408.5 317.833,408.5 316.5,408.5 Z"/></g>
<g><path style="opacity:1" fill="#242422" d="M 264.5,369.5 C 265.477,372.287 265.81,375.287 265.5,378.5C 270.762,378.195 275.928,378.529 281,379.5C 281.5,388.827 281.666,398.161 281.5,407.5C 280.167,407.5 278.833,407.5 277.5,407.5C 277.663,409.857 277.497,412.19 277,414.5C 272.198,406.563 268.198,398.23 265,389.5C 264.5,382.842 264.334,376.175 264.5,369.5 Z"/></g>
<g><path style="opacity:1" fill="#1d1d1b" d="M 303.5,380.5 C 308.833,380.5 314.167,380.5 319.5,380.5C 319.5,389.5 319.5,398.5 319.5,407.5C 318.209,407.263 317.209,407.596 316.5,408.5C 316.5,416.833 316.5,425.167 316.5,433.5C 325.167,433.5 333.833,433.5 342.5,433.5C 342.833,392.167 343.167,392.167 343.5,433.5C 352.167,433.5 360.833,433.5 369.5,433.5C 369.336,430.813 369.503,428.146 370,425.5C 371.833,428 373.667,430.5 375.5,433C 385.161,433.5 394.828,433.666 404.5,433.5C 410.182,474.633 395.182,505.466 359.5,526C 320.738,541.682 287.238,534.182 259,503.5C 245.225,485.498 239.558,465.164 242,442.5C 243.133,440.789 244.633,440.289 246.5,441C 251.893,456.45 260.56,469.783 272.5,481C 282.499,487.778 293.499,491.112 305.5,491C 313.114,489.053 317.614,484.22 319,476.5C 319.726,471.761 319.393,467.095 318,462.5C 311.33,451.821 303.163,442.321 293.5,434C 297.821,433.501 302.154,433.334 306.5,433.5C 306.5,425.167 306.5,416.833 306.5,408.5C 305.5,408.5 304.5,408.5 303.5,408.5C 303.5,399.167 303.5,389.833 303.5,380.5 Z"/></g>
<g><path style="opacity:1" fill="#a1a1a0" d="M 365.5,392.5 C 366.167,397.5 366.833,402.5 367.5,407.5C 367.44,408.043 367.107,408.376 366.5,408.5C 365.505,403.208 365.172,397.875 365.5,392.5 Z"/></g>
<g><path style="opacity:1" fill="#767675" d="M 222.5,362.5 C 223.496,378.658 223.83,394.991 223.5,411.5C 222.5,411.5 221.5,411.5 220.5,411.5C 220.5,417.167 220.5,422.833 220.5,428.5C 225.833,428.5 231.167,428.5 236.5,428.5C 231.025,429.489 225.358,429.822 219.5,429.5C 219.5,423.167 219.5,416.833 219.5,410.5C 220.5,410.5 221.5,410.5 222.5,410.5C 222.5,394.5 222.5,378.5 222.5,362.5 Z"/></g>
<g><path style="opacity:0.976" fill="#f9f9f9" d="M 431.5,396.5 C 434.187,396.336 436.854,396.503 439.5,397C 441.032,401.809 440.699,406.476 438.5,411C 436.19,411.497 433.857,411.663 431.5,411.5C 431.5,406.5 431.5,401.5 431.5,396.5 Z"/></g>
<g><path style="opacity:1" fill="#6c6c6b" d="M 302.5,367.5 C 301.5,367.5 300.5,367.5 299.5,367.5C 299.5,382.5 299.5,397.5 299.5,412.5C 298.504,397.342 298.17,382.009 298.5,366.5C 300.099,366.232 301.432,366.566 302.5,367.5 Z"/></g>
<g><path style="opacity:1" fill="#90908f" d="M 195.5,402.5 C 192.391,402.264 189.391,402.597 186.5,403.5C 187.514,402.235 189.014,401.569 191,401.5C 192.707,401.508 194.207,401.842 195.5,402.5 Z"/></g>
<g><path style="opacity:1" fill="#a4a4a3" d="M 260.5,411.5 C 261.833,411.5 263.167,411.5 264.5,411.5C 264.5,417.5 264.5,423.5 264.5,429.5C 258.31,429.823 252.31,429.49 246.5,428.5C 252.167,428.5 257.833,428.5 263.5,428.5C 263.5,423.167 263.5,417.833 263.5,412.5C 262.209,412.737 261.209,412.404 260.5,411.5 Z"/></g>
<g><path style="opacity:1" fill="#555554" d="M 121.5,348.5 C 122.497,367.993 122.83,387.66 122.5,407.5C 121.5,407.5 120.5,407.5 119.5,407.5C 119.5,414.167 119.5,420.833 119.5,427.5C 124.833,427.5 130.167,427.5 135.5,427.5C 130.025,428.489 124.358,428.822 118.5,428.5C 118.5,421.167 118.5,413.833 118.5,406.5C 119.5,406.5 120.5,406.5 121.5,406.5C 121.5,387.167 121.5,367.833 121.5,348.5 Z"/></g>
<g><path style="opacity:1" fill="#8b8b8a" d="M 195.5,406.5 C 196.434,407.568 196.768,408.901 196.5,410.5C 195.5,410.5 194.5,410.5 193.5,410.5C 193.5,416.5 193.5,422.5 193.5,428.5C 199.833,428.5 206.167,428.5 212.5,428.5C 212.5,422.5 212.5,416.5 212.5,410.5C 213.49,416.645 213.823,422.978 213.5,429.5C 206.5,429.5 199.5,429.5 192.5,429.5C 192.5,422.833 192.5,416.167 192.5,409.5C 193.5,409.5 194.5,409.5 195.5,409.5C 195.5,408.5 195.5,407.5 195.5,406.5 Z"/></g>
<g><path style="opacity:1" fill="#787877" d="M 338.5,398.5 C 338.5,408.833 338.5,419.167 338.5,429.5C 332.5,429.5 326.5,429.5 320.5,429.5C 320.178,423.642 320.511,417.975 321.5,412.5C 321.5,417.833 321.5,423.167 321.5,428.5C 326.833,428.5 332.167,428.5 337.5,428.5C 337.173,418.319 337.506,408.319 338.5,398.5 Z"/></g>
<g><path style="opacity:1" fill="#646463" d="M 364.5,412.5 C 365.489,417.975 365.822,423.642 365.5,429.5C 359.642,429.822 353.975,429.489 348.5,428.5C 353.833,428.5 359.167,428.5 364.5,428.5C 364.5,423.167 364.5,417.833 364.5,412.5 Z"/></g>
</svg>
